<svg width="640" height="420" viewBox="0 0 640 420" fill="none" xmlns="http://www.w3.org/2000/svg">
  <rect width="640" height="420" rx="28" fill="#EFE5D8"/>
  <rect x="126" y="52" width="388" height="316" rx="22" fill="#FFFDF9"/>
  <rect x="156" y="88" width="142" height="16" rx="8" fill="#D6E0E7"/>
  <rect x="156" y="126" width="314" height="14" rx="7" fill="#E7DDD0"/>
  <rect x="156" y="154" width="314" height="14" rx="7" fill="#E7DDD0"/>
  <rect x="156" y="182" width="314" height="14" rx="7" fill="#E7DDD0"/>
  <rect x="156" y="220" width="86" height="86" rx="18" fill="#EEF4F7"/>
  <rect x="260" y="220" width="210" height="18" rx="9" fill="#D6E0E7"/>
  <rect x="260" y="250" width="170" height="14" rx="7" fill="#E7DDD0"/>
  <rect x="260" y="278" width="188" height="14" rx="7" fill="#E7DDD0"/>
  <path d="M186 246H212V280H186V246Z" stroke="#284C61" stroke-width="6"/>
  <path d="M198 246V220" stroke="#284C61" stroke-width="6" stroke-linecap="round"/>
  <path d="M186 280L174 300" stroke="#284C61" stroke-width="6" stroke-linecap="round"/>
  <text x="156" y="342" fill="#516575" font-family="sans-serif" font-size="18">Лист полевых замеров</text>
</svg>
